<?xml version="1.0" standalone="no"?>
<!DOCTYPE svg PUBLIC "-//W3C//DTD SVG 20010904//EN"
 "http://www.w3.org/TR/2001/REC-SVG-20010904/DTD/svg10.dtd">
<svg version="1.0" xmlns="http://www.w3.org/2000/svg"
 width="120.000000pt" height="120.000000pt" viewBox="0 0 120.000000 120.000000"
 preserveAspectRatio="xMidYMid meet">

<g transform="translate(0.000000,120.000000) scale(0.100000,-0.100000)"
fill="#000000" stroke="none">
<path d="M445 1141 c-186 -53 -340 -211 -390 -401 -18 -65 -19 -188 -4 -262
31 -149 155 -311 289 -376 230 -112 481 -73 654 102 111 112 166 242 166 396
0 257 -172 479 -420 545 -74 20 -220 18 -295 -4z m497 -211 c1 -44 2 -92 2
-107 1 -24 -3 -28 -31 -31 -32 -3 -32 -3 -39 49 -11 82 -34 99 -134 99 l-80 0
0 -337 c0 -250 4 -344 13 -363 10 -19 24 -27 65 -34 45 -8 52 -13 52 -33 l0
-23 -190 0 -190 0 0 24 c0 21 6 24 49 30 27 3 55 14 62 23 11 13 15 89 17 365
l3 348 -78 0 c-102 0 -118 -11 -134 -91 -12 -59 -12 -60 -43 -57 -22 2 -31 8
-30 21 0 9 1 58 2 107 l2 90 340 0 340 0 2 -80z"/>
</g>
</svg>
